<svg id="Layer_1" data-name="Layer 1" xmlns="http://www.w3.org/2000/svg" viewBox="0 0 5.34 11.04"><defs><style>.cls-1{fill:#4aaf7b;}.cls-2{fill:#489c74;}.cls-3{fill:#a6d1b6;}.cls-4{fill:#a6d1b4;}.cls-5{fill:#a6d0b3;}</style></defs><title>Untitled-1</title><path class="cls-1" d="M5.53,10.88a6.21,6.21,0,0,1-3,.34A6.13,6.13,0,0,1,1,10.81a.32.32,0,0,1-.23-.31,8.49,8.49,0,0,1,.68-4.23c.2-.43.51-.8.69-1.24a1.9,1.9,0,0,0,.19-.88.59.59,0,0,0-.19-.42,1.87,1.87,0,0,1-.57-1.94A1.92,1.92,0,0,1,3,.3,1.75,1.75,0,0,1,3.54.24a1.33,1.33,0,0,1,.69.25.7.7,0,0,0,.15.25A2.26,2.26,0,0,1,4.65,3a1.81,1.81,0,0,1-.41.58A.9.9,0,0,0,4,4.37,3.62,3.62,0,0,0,4.57,5.7,6.78,6.78,0,0,1,5.3,7.45a11.16,11.16,0,0,1,.29,3.1A.9.9,0,0,1,5.53,10.88Z" transform="translate(-0.7 -0.23)"/><path class="cls-2" d="M5.53,10.86c-.13-.06,0-.11,0-.17,0-.67,0-1.34-.07-2A12.93,12.93,0,0,0,5.2,7.27a5.39,5.39,0,0,0-.34-.94c-.23-.5-.58-.94-.76-1.47A1.74,1.74,0,0,1,4,4.3a1.07,1.07,0,0,1,.28-.82,1.87,1.87,0,0,0,.52-1.68A2.41,2.41,0,0,0,4.25.6s-.1-.07,0-.12a2,2,0,0,1,1,2.27,1.39,1.39,0,0,1-.45.82,1,1,0,0,0-.25,1.1,3.07,3.07,0,0,0,.43.91,6.51,6.51,0,0,1,1,2.67A9.37,9.37,0,0,1,6,10.45a.33.33,0,0,1-.24.33Z" transform="translate(-0.7 -0.23)"/><path class="cls-3" d="M1.61,7.17a2.13,2.13,0,0,1,.29-1C2,6,2,5.83,2.12,5.69s.08-.14.18-.14a.23.23,0,0,1,.19.18,1.22,1.22,0,0,1,.06.66A5.4,5.4,0,0,1,2,7.75c-.08.16-.21.14-.29,0A.94.94,0,0,1,1.61,7.17Z" transform="translate(-0.7 -0.23)"/><path class="cls-4" d="M4.13,1.39a6.69,6.69,0,0,0-1.21,0l-.43,0c-.16,0-.19-.07-.14-.21A.73.73,0,0,1,2.74.8,1.25,1.25,0,0,1,4.29,1c.07.07.17.15.13.27S4.24,1.36,4.13,1.39Z" transform="translate(-0.7 -0.23)"/><path class="cls-5" d="M2.56,1.69a.37.37,0,0,1-.35.4c-.12,0-.25,0-.25-.2a.39.39,0,0,1,.35-.42C2.46,1.47,2.58,1.51,2.56,1.69Z" transform="translate(-0.7 -0.23)"/></svg>